<mxfile host="app.diagrams.net" modified="2023-10-09T14:26:12.119Z" agent="Mozilla/5.0 (Windows NT 10.0; Win64; x64) AppleWebKit/537.36 (KHTML, like Gecko) Chrome/117.0.0.0 Safari/537.36" etag="xrc7sqCM-4b2lkGG1HkG" version="22.0.4" type="google">
  <diagram name="Page-1" id="Z3Wa3N5RDXcFm6kQD6Vr">
    <mxGraphModel grid="1" page="1" gridSize="10" guides="1" tooltips="1" connect="1" arrows="1" fold="1" pageScale="1" pageWidth="2339" pageHeight="3300" math="0" shadow="0">
      <root>
        <mxCell id="0" />
        <mxCell id="1" parent="0" />
        <mxCell id="jIirBUzZ5BSsOmuKx3aa-16" style="edgeStyle=orthogonalEdgeStyle;rounded=0;orthogonalLoop=1;jettySize=auto;html=1;exitX=0.5;exitY=1;exitDx=0;exitDy=0;endArrow=none;endFill=0;strokeWidth=2;" edge="1" parent="1" source="HY_i06J81iXAwnbzSeIs-1">
          <mxGeometry relative="1" as="geometry">
            <mxPoint x="400.14814814814804" y="300" as="targetPoint" />
          </mxGeometry>
        </mxCell>
        <mxCell id="HY_i06J81iXAwnbzSeIs-1" value="Huvudmodul/&lt;br&gt;kommunikations-modul" style="whiteSpace=wrap;html=1;aspect=fixed;fillColor=none;" vertex="1" parent="1">
          <mxGeometry x="350" y="190" width="100" height="100" as="geometry" />
        </mxCell>
        <mxCell id="HY_i06J81iXAwnbzSeIs-4" value="" style="endArrow=none;html=1;rounded=0;strokeWidth=2;" edge="1" parent="1">
          <mxGeometry width="50" height="50" relative="1" as="geometry">
            <mxPoint x="220" y="300" as="sourcePoint" />
            <mxPoint x="580" y="300" as="targetPoint" />
          </mxGeometry>
        </mxCell>
        <mxCell id="jIirBUzZ5BSsOmuKx3aa-15" style="edgeStyle=orthogonalEdgeStyle;rounded=0;orthogonalLoop=1;jettySize=auto;html=1;exitX=0.5;exitY=0;exitDx=0;exitDy=0;endArrow=none;endFill=0;strokeWidth=2;" edge="1" parent="1" source="HY_i06J81iXAwnbzSeIs-6">
          <mxGeometry relative="1" as="geometry">
            <mxPoint x="400.14814814814804" y="300" as="targetPoint" />
          </mxGeometry>
        </mxCell>
        <mxCell id="HY_i06J81iXAwnbzSeIs-6" value="Sensormodul" style="whiteSpace=wrap;html=1;aspect=fixed;fillColor=none;" vertex="1" parent="1">
          <mxGeometry x="360" y="320" width="80" height="80" as="geometry" />
        </mxCell>
        <mxCell id="jIirBUzZ5BSsOmuKx3aa-18" style="edgeStyle=orthogonalEdgeStyle;rounded=0;orthogonalLoop=1;jettySize=auto;html=1;exitX=0.5;exitY=0;exitDx=0;exitDy=0;endArrow=none;endFill=0;strokeWidth=2;" edge="1" parent="1" source="HY_i06J81iXAwnbzSeIs-7">
          <mxGeometry relative="1" as="geometry">
            <mxPoint x="520.148148148148" y="300" as="targetPoint" />
          </mxGeometry>
        </mxCell>
        <mxCell id="0rTvzVxeK4KBcYrv1Pf9-2" style="edgeStyle=orthogonalEdgeStyle;rounded=0;orthogonalLoop=1;jettySize=auto;html=1;exitX=0.25;exitY=1;exitDx=0;exitDy=0;entryX=0.5;entryY=0;entryDx=0;entryDy=0;" edge="1" parent="1" source="HY_i06J81iXAwnbzSeIs-7" target="jIirBUzZ5BSsOmuKx3aa-13">
          <mxGeometry relative="1" as="geometry" />
        </mxCell>
        <mxCell id="HY_i06J81iXAwnbzSeIs-7" value="Styrmodul" style="whiteSpace=wrap;html=1;aspect=fixed;fillColor=none;" vertex="1" parent="1">
          <mxGeometry x="480" y="320" width="80" height="80" as="geometry" />
        </mxCell>
        <mxCell id="jIirBUzZ5BSsOmuKx3aa-19" style="edgeStyle=orthogonalEdgeStyle;rounded=0;orthogonalLoop=1;jettySize=auto;html=1;exitX=0.5;exitY=0;exitDx=0;exitDy=0;endArrow=none;endFill=0;strokeWidth=2;" edge="1" parent="1" source="HY_i06J81iXAwnbzSeIs-8">
          <mxGeometry relative="1" as="geometry">
            <mxPoint x="280.14814814814804" y="300" as="targetPoint" />
          </mxGeometry>
        </mxCell>
        <mxCell id="HY_i06J81iXAwnbzSeIs-8" value="Lasersensor" style="whiteSpace=wrap;html=1;aspect=fixed;fillColor=none;" vertex="1" parent="1">
          <mxGeometry x="240" y="320" width="80" height="80" as="geometry" />
        </mxCell>
        <mxCell id="HY_i06J81iXAwnbzSeIs-9" value="I&lt;sup&gt;2&lt;/sup&gt;C-Buss" style="text;html=1;align=center;verticalAlign=middle;resizable=0;points=[];autosize=1;strokeColor=none;fillColor=none;" vertex="1" parent="1">
          <mxGeometry x="520" y="270" width="70" height="30" as="geometry" />
        </mxCell>
        <mxCell id="HY_i06J81iXAwnbzSeIs-14" value="Extern dator" style="whiteSpace=wrap;html=1;aspect=fixed;fillColor=none;" vertex="1" parent="1">
          <mxGeometry x="360" y="40" width="80" height="80" as="geometry" />
        </mxCell>
        <mxCell id="HY_i06J81iXAwnbzSeIs-21" value="" style="curved=1;endArrow=classic;html=1;rounded=0;exitX=0.25;exitY=1;exitDx=0;exitDy=0;entryX=0.25;entryY=0;entryDx=0;entryDy=0;" edge="1" parent="1" source="HY_i06J81iXAwnbzSeIs-14" target="HY_i06J81iXAwnbzSeIs-1">
          <mxGeometry width="50" height="50" relative="1" as="geometry">
            <mxPoint x="360" y="190" as="sourcePoint" />
            <mxPoint x="410" y="140" as="targetPoint" />
            <Array as="points">
              <mxPoint x="370" y="140" />
              <mxPoint x="390" y="170" />
            </Array>
          </mxGeometry>
        </mxCell>
        <mxCell id="jIirBUzZ5BSsOmuKx3aa-2" value="" style="curved=1;endArrow=none;html=1;rounded=0;exitX=0.25;exitY=1;exitDx=0;exitDy=0;entryX=0.75;entryY=0;entryDx=0;entryDy=0;endFill=0;startArrow=classic;startFill=1;" edge="1" parent="1" target="HY_i06J81iXAwnbzSeIs-1">
          <mxGeometry width="50" height="50" relative="1" as="geometry">
            <mxPoint x="420" y="120" as="sourcePoint" />
            <mxPoint x="420" y="200" as="targetPoint" />
            <Array as="points">
              <mxPoint x="410" y="140" />
              <mxPoint x="430" y="170" />
            </Array>
          </mxGeometry>
        </mxCell>
        <mxCell id="jIirBUzZ5BSsOmuKx3aa-3" value="" style="html=1;verticalLabelPosition=bottom;align=center;labelBackgroundColor=#ffffff;verticalAlign=top;strokeWidth=2;shadow=0;dashed=0;shape=mxgraph.ios7.icons.bluetooth;pointerEvents=1;" vertex="1" parent="1">
          <mxGeometry x="430" y="140" width="15" height="28.799999999999997" as="geometry" />
        </mxCell>
        <mxCell id="jIirBUzZ5BSsOmuKx3aa-9" style="edgeStyle=orthogonalEdgeStyle;rounded=0;orthogonalLoop=1;jettySize=auto;html=1;exitX=0.5;exitY=0;exitDx=0;exitDy=0;entryX=0.5;entryY=1;entryDx=0;entryDy=0;" edge="1" parent="1" source="jIirBUzZ5BSsOmuKx3aa-4" target="HY_i06J81iXAwnbzSeIs-6">
          <mxGeometry relative="1" as="geometry" />
        </mxCell>
        <mxCell id="jIirBUzZ5BSsOmuKx3aa-4" value="AD-omvandlare" style="whiteSpace=wrap;html=1;aspect=fixed;fillColor=none;" vertex="1" parent="1">
          <mxGeometry x="365" y="430" width="70" height="70" as="geometry" />
        </mxCell>
        <mxCell id="jIirBUzZ5BSsOmuKx3aa-7" style="edgeStyle=orthogonalEdgeStyle;rounded=0;orthogonalLoop=1;jettySize=auto;html=1;exitX=0.5;exitY=0;exitDx=0;exitDy=0;entryX=0.5;entryY=1;entryDx=0;entryDy=0;" edge="1" parent="1" target="jIirBUzZ5BSsOmuKx3aa-4">
          <mxGeometry relative="1" as="geometry">
            <mxPoint x="365.0000000000001" y="540.0000000000001" as="sourcePoint" />
          </mxGeometry>
        </mxCell>
        <mxCell id="jIirBUzZ5BSsOmuKx3aa-6" value="IR-sensorer" style="whiteSpace=wrap;html=1;aspect=fixed;fillColor=none;" vertex="1" parent="1">
          <mxGeometry x="340" y="540" width="50" height="50" as="geometry" />
        </mxCell>
        <mxCell id="jIirBUzZ5BSsOmuKx3aa-12" style="edgeStyle=orthogonalEdgeStyle;rounded=0;orthogonalLoop=1;jettySize=auto;html=1;exitX=0.5;exitY=0;exitDx=0;exitDy=0;entryX=0.5;entryY=1;entryDx=0;entryDy=0;" edge="1" parent="1" target="jIirBUzZ5BSsOmuKx3aa-4">
          <mxGeometry relative="1" as="geometry">
            <mxPoint x="435.0000000000001" y="540.0000000000001" as="sourcePoint" />
          </mxGeometry>
        </mxCell>
        <mxCell id="jIirBUzZ5BSsOmuKx3aa-10" value="Hall-sensor" style="whiteSpace=wrap;html=1;aspect=fixed;fillColor=none;" vertex="1" parent="1">
          <mxGeometry x="410" y="540" width="50" height="50" as="geometry" />
        </mxCell>
        <mxCell id="jIirBUzZ5BSsOmuKx3aa-13" value="Sumo" style="whiteSpace=wrap;html=1;aspect=fixed;fillColor=none;" vertex="1" parent="1">
          <mxGeometry x="460" y="440" width="50" height="50" as="geometry" />
        </mxCell>
        <mxCell id="0rTvzVxeK4KBcYrv1Pf9-5" style="edgeStyle=orthogonalEdgeStyle;rounded=0;orthogonalLoop=1;jettySize=auto;html=1;exitX=0.5;exitY=0;exitDx=0;exitDy=0;entryX=0.25;entryY=1;entryDx=0;entryDy=0;endArrow=none;endFill=0;strokeWidth=2;" edge="1" parent="1" source="0rTvzVxeK4KBcYrv1Pf9-3" target="HY_i06J81iXAwnbzSeIs-6">
          <mxGeometry relative="1" as="geometry">
            <Array as="points">
              <mxPoint x="315" y="420" />
              <mxPoint x="380" y="420" />
            </Array>
          </mxGeometry>
        </mxCell>
        <mxCell id="0rTvzVxeK4KBcYrv1Pf9-3" value="Gyro" style="whiteSpace=wrap;html=1;aspect=fixed;fillColor=none;" vertex="1" parent="1">
          <mxGeometry x="290" y="450" width="50" height="50" as="geometry" />
        </mxCell>
        <mxCell id="0rTvzVxeK4KBcYrv1Pf9-6" value="SPI-buss" style="text;html=1;align=center;verticalAlign=middle;resizable=0;points=[];autosize=1;strokeColor=none;fillColor=none;" vertex="1" parent="1">
          <mxGeometry x="245" y="410" width="70" height="30" as="geometry" />
        </mxCell>
        <mxCell id="iAGvb6EcOfTie0PhR-fK-4" style="edgeStyle=orthogonalEdgeStyle;rounded=0;orthogonalLoop=1;jettySize=auto;html=1;exitX=0;exitY=0.25;exitDx=0;exitDy=0;entryX=0.75;entryY=1;entryDx=0;entryDy=0;endArrow=none;endFill=0;" edge="1" parent="1" source="iAGvb6EcOfTie0PhR-fK-1" target="HY_i06J81iXAwnbzSeIs-6">
          <mxGeometry relative="1" as="geometry">
            <Array as="points">
              <mxPoint x="450" y="523" />
              <mxPoint x="450" y="420" />
              <mxPoint x="420" y="420" />
            </Array>
          </mxGeometry>
        </mxCell>
        <mxCell id="iAGvb6EcOfTie0PhR-fK-1" value="Knapp" style="whiteSpace=wrap;html=1;aspect=fixed;fillColor=none;" vertex="1" parent="1">
          <mxGeometry x="470" y="510" width="50" height="50" as="geometry" />
        </mxCell>
      </root>
    </mxGraphModel>
  </diagram>
</mxfile>
